<svg width="512" height="512" viewBox="0 0 512 512" xmlns="http://www.w3.org/2000/svg">
  <rect width="512" height="512" rx="128" fill="#0E131A" />
  <path d="M256 80C159.4 80 80 159.4 80 256C80 352.6 159.4 432 256 432C352.6 432 432 352.6 432 256C432 159.4 352.6 80 256 80ZM256 128C326.7 128 384 185.3 384 256C384 326.7 326.7 384 256 384C185.3 384 128 326.7 128 256C128 185.3 185.3 128 256 128Z" fill="#3772FF" />
  <path d="M256 192C220.7 192 192 220.7 192 256C192 291.3 220.7 320 256 320C291.3 320 320 291.3 320 256C320 220.7 291.3 192 256 192Z" fill="#3772FF" />
</svg> 