<svg width="192" height="192" viewBox="0 0 192 192" xmlns="http://www.w3.org/2000/svg">
  <rect width="192" height="192" rx="48" fill="#0E131A" />
  <path d="M96 30C59.55 30 30 59.55 30 96C30 132.45 59.55 162 96 162C132.45 162 162 132.45 162 96C162 59.55 132.45 30 96 30ZM96 48C122.51 48 144 69.49 144 96C144 122.51 122.51 144 96 144C69.49 144 48 122.51 48 96C48 69.49 69.49 48 96 48Z" fill="#3772FF" />
  <path d="M96 72C82.745 72 72 82.745 72 96C72 109.255 82.745 120 96 120C109.255 120 120 109.255 120 96C120 82.745 109.255 72 96 72Z" fill="#3772FF" />
</svg> 